<mxfile host="app.diagrams.net" modified="2020-05-18T09:05:01.190Z" agent="5.0 (Windows NT 10.0; Win64; x64) AppleWebKit/537.36 (KHTML, like Gecko) Chrome/80.0.3987.132 Safari/537.36" etag="nkcfdYmbxlNhVifEy544" version="13.1.1" type="github">
  <diagram id="ZieNJUuBfNxr683kOoOD" name="Page-1">
    <mxGraphModel dx="1370" dy="717" grid="1" gridSize="10" guides="1" tooltips="1" connect="1" arrows="1" fold="1" page="1" pageScale="1" pageWidth="850" pageHeight="1100" math="0" shadow="0">
      <root>
        <mxCell id="0" />
        <mxCell id="1" parent="0" />
        <mxCell id="HoR6jKGoqs6wjyYa6Poe-27" value="" style="rounded=0;whiteSpace=wrap;html=1;fontColor=#3333FF;" vertex="1" parent="1">
          <mxGeometry x="618" y="163.5" width="270" height="116" as="geometry" />
        </mxCell>
        <mxCell id="HoR6jKGoqs6wjyYa6Poe-20" value="" style="rounded=0;whiteSpace=wrap;html=1;fontColor=#3333FF;" vertex="1" parent="1">
          <mxGeometry x="619" y="284" width="270" height="116" as="geometry" />
        </mxCell>
        <mxCell id="HoR6jKGoqs6wjyYa6Poe-19" value="" style="whiteSpace=wrap;html=1;aspect=fixed;fontColor=#3333FF;" vertex="1" parent="1">
          <mxGeometry x="618" y="410" width="270" height="270" as="geometry" />
        </mxCell>
        <mxCell id="HoR6jKGoqs6wjyYa6Poe-3" value="Front repository" style="shape=image;html=1;verticalAlign=top;verticalLabelPosition=bottom;labelBackgroundColor=#ffffff;imageAspect=0;aspect=fixed;image=https://cdn0.iconfinder.com/data/icons/long-shadow-web-icons/512/github-128.png" vertex="1" parent="1">
          <mxGeometry x="179" y="300" width="68" height="68" as="geometry" />
        </mxCell>
        <mxCell id="HoR6jKGoqs6wjyYa6Poe-4" value="&lt;font style=&quot;font-size: 11px&quot; color=&quot;#000000&quot;&gt;Organisation&lt;br&gt;&amp;nbsp;&lt;a class=&quot;url fn&quot; href=&quot;https://github.airbus.corp/aircraft-delivery-transformation&quot; style=&quot;box-sizing: border-box&quot;&gt;aircraft-delivery-transformation&lt;br&gt;&lt;/a&gt;&lt;/font&gt;&lt;h1 class=&quot;public  d-flex flex-wrap flex-items-center break-word float-none&quot; style=&quot;box-sizing: border-box ; margin: 0px ; font-weight: 400 ; line-height: 26px ; position: relative ; max-width: 635px ; font-family: , &amp;#34;blinkmacsystemfont&amp;#34; , &amp;#34;segoe ui&amp;#34; , &amp;#34;helvetica&amp;#34; , &amp;#34;arial&amp;#34; , sans-serif , &amp;#34;apple color emoji&amp;#34; , &amp;#34;segoe ui emoji&amp;#34; ; background-color: rgb(250 , 251 , 252) ; word-break: break-word ; overflow-wrap: break-word ; display: flex&quot;&gt;&lt;div style=&quot;font-size: 18px&quot;&gt;&lt;br&gt;&lt;/div&gt;&lt;/h1&gt;" style="shape=image;html=1;verticalAlign=top;verticalLabelPosition=bottom;labelBackgroundColor=#ffffff;imageAspect=0;aspect=fixed;image=https://cdn1.iconfinder.com/data/icons/picons-social/57/github-128.png;fontColor=#3333FF;" vertex="1" parent="1">
          <mxGeometry x="180" y="10" width="66" height="66" as="geometry" />
        </mxCell>
        <mxCell id="HoR6jKGoqs6wjyYa6Poe-5" value="" style="endArrow=none;dashed=1;html=1;fontColor=#3333FF;" edge="1" parent="1">
          <mxGeometry width="50" height="50" relative="1" as="geometry">
            <mxPoint x="400" y="560" as="sourcePoint" />
            <mxPoint x="400" y="80" as="targetPoint" />
          </mxGeometry>
        </mxCell>
        <mxCell id="HoR6jKGoqs6wjyYa6Poe-6" value="&lt;font style=&quot;font-size: 11px&quot; color=&quot;#000000&quot;&gt;Organisation&lt;br&gt;&amp;nbsp;iot&lt;br&gt;&lt;/font&gt;" style="shape=image;html=1;verticalAlign=top;verticalLabelPosition=bottom;labelBackgroundColor=#ffffff;imageAspect=0;aspect=fixed;image=https://cdn1.iconfinder.com/data/icons/picons-social/57/github-128.png;fontColor=#3333FF;" vertex="1" parent="1">
          <mxGeometry x="600" y="14" width="62" height="62" as="geometry" />
        </mxCell>
        <mxCell id="HoR6jKGoqs6wjyYa6Poe-8" value="api platform repository" style="shape=image;html=1;verticalAlign=top;verticalLabelPosition=bottom;labelBackgroundColor=#ffffff;imageAspect=0;aspect=fixed;image=https://cdn0.iconfinder.com/data/icons/long-shadow-web-icons/512/github-128.png" vertex="1" parent="1">
          <mxGeometry x="658.5" y="180" width="61" height="61" as="geometry" />
        </mxCell>
        <mxCell id="HoR6jKGoqs6wjyYa6Poe-9" value="cvault &lt;br&gt;connector repository" style="shape=image;html=1;verticalAlign=top;verticalLabelPosition=bottom;labelBackgroundColor=#ffffff;imageAspect=0;aspect=fixed;image=https://cdn0.iconfinder.com/data/icons/long-shadow-web-icons/512/github-128.png" vertex="1" parent="1">
          <mxGeometry x="650" y="430" width="68" height="68" as="geometry" />
        </mxCell>
        <mxCell id="HoR6jKGoqs6wjyYa6Poe-10" value="monitoring sas&lt;br&gt;repository" style="shape=image;html=1;verticalAlign=top;verticalLabelPosition=bottom;labelBackgroundColor=#ffffff;imageAspect=0;aspect=fixed;image=https://cdn0.iconfinder.com/data/icons/long-shadow-web-icons/512/github-128.png" vertex="1" parent="1">
          <mxGeometry x="779" y="300" width="63" height="63" as="geometry" />
        </mxCell>
        <mxCell id="HoR6jKGoqs6wjyYa6Poe-11" value="monitoring cvault&lt;br&gt;repository" style="shape=image;html=1;verticalAlign=top;verticalLabelPosition=bottom;labelBackgroundColor=#ffffff;imageAspect=0;aspect=fixed;image=https://cdn0.iconfinder.com/data/icons/long-shadow-web-icons/512/github-128.png" vertex="1" parent="1">
          <mxGeometry x="650" y="300" width="63" height="63" as="geometry" />
        </mxCell>
        <mxCell id="HoR6jKGoqs6wjyYa6Poe-14" value="skywise&lt;br&gt;connector repository" style="shape=image;html=1;verticalAlign=top;verticalLabelPosition=bottom;labelBackgroundColor=#ffffff;imageAspect=0;aspect=fixed;image=https://cdn0.iconfinder.com/data/icons/long-shadow-web-icons/512/github-128.png" vertex="1" parent="1">
          <mxGeometry x="782" y="430" width="68" height="68" as="geometry" />
        </mxCell>
        <mxCell id="HoR6jKGoqs6wjyYa6Poe-15" value="SAS&amp;nbsp;&lt;br&gt;connector repository" style="shape=image;html=1;verticalAlign=top;verticalLabelPosition=bottom;labelBackgroundColor=#ffffff;imageAspect=0;aspect=fixed;image=https://cdn0.iconfinder.com/data/icons/long-shadow-web-icons/512/github-128.png" vertex="1" parent="1">
          <mxGeometry x="782" y="570" width="68" height="68" as="geometry" />
        </mxCell>
        <mxCell id="HoR6jKGoqs6wjyYa6Poe-17" value="clb&lt;br&gt;connector repository" style="shape=image;html=1;verticalAlign=top;verticalLabelPosition=bottom;labelBackgroundColor=#ffffff;imageAspect=0;aspect=fixed;image=https://cdn0.iconfinder.com/data/icons/long-shadow-web-icons/512/github-128.png" vertex="1" parent="1">
          <mxGeometry x="650" y="570" width="68" height="68" as="geometry" />
        </mxCell>
        <mxCell id="HoR6jKGoqs6wjyYa6Poe-18" value="&lt;font style=&quot;font-size: 16px&quot; color=&quot;#000000&quot;&gt;1 repo per connector&lt;/font&gt;" style="text;html=1;align=center;verticalAlign=middle;resizable=0;points=[];autosize=1;fontColor=#3333FF;" vertex="1" parent="1">
          <mxGeometry x="425" y="535" width="160" height="20" as="geometry" />
        </mxCell>
        <mxCell id="HoR6jKGoqs6wjyYa6Poe-21" value="&lt;font style=&quot;font-size: 16px&quot; color=&quot;#000000&quot;&gt;1 repo per monitoring&lt;/font&gt;" style="text;html=1;align=center;verticalAlign=middle;resizable=0;points=[];autosize=1;fontColor=#3333FF;" vertex="1" parent="1">
          <mxGeometry x="425" y="332" width="170" height="20" as="geometry" />
        </mxCell>
        <mxCell id="HoR6jKGoqs6wjyYa6Poe-25" value="&lt;font style=&quot;font-size: 16px&quot; color=&quot;#000000&quot;&gt;1 repo&lt;/font&gt;" style="text;html=1;align=center;verticalAlign=middle;resizable=0;points=[];autosize=1;fontColor=#3333FF;" vertex="1" parent="1">
          <mxGeometry x="425" y="209.5" width="60" height="20" as="geometry" />
        </mxCell>
      </root>
    </mxGraphModel>
  </diagram>
</mxfile>
